<svg width="16" height="16" viewBox="0 0 16 16" fill="none" xmlns="http://www.w3.org/2000/svg">
<path d="M3.48933 5.15325C3.97006 4.39162 4.63584 3.76413 5.42458 3.32931C6.21333 2.89448 7.09934 2.66649 8 2.66659C8.90077 2.66638 9.78692 2.89432 10.5758 3.32914C11.3647 3.76397 12.0305 4.39152 12.5113 5.15325L13.638 4.43992C13.0369 3.48823 12.2047 2.70423 11.2188 2.161C10.233 1.61778 9.12561 1.33301 8 1.33325C6.8745 1.33312 5.76729 1.61794 4.78156 2.16116C3.79584 2.70439 2.96368 3.48833 2.36267 4.43992L3.48933 5.15325ZM8 13.3333C7.09934 13.3333 6.21333 13.1054 5.42458 12.6705C4.63584 12.2357 3.97006 11.6082 3.48933 10.8466L2.36267 11.5599C2.96368 12.5115 3.79584 13.2955 4.78156 13.8387C5.76729 14.3819 6.8745 14.6667 8 14.6666C9.12561 14.6668 10.233 14.3821 11.2188 13.8388C12.2047 13.2956 13.0369 12.5116 13.638 11.5599L12.5113 10.8466C12.0305 11.6083 11.3647 12.2359 10.5758 12.6707C9.78692 13.1055 8.90077 13.3335 8 13.3333ZM8 5.33325C8.17681 5.33325 8.34638 5.40349 8.47141 5.52851C8.59643 5.65354 8.66667 5.82311 8.66667 5.99992C8.66667 6.17673 8.59643 6.3463 8.47141 6.47132C8.34638 6.59635 8.17681 6.66658 8 6.66658C7.82319 6.66658 7.65362 6.59635 7.5286 6.47132C7.40357 6.3463 7.33333 6.17673 7.33333 5.99992C7.33333 5.82311 7.40357 5.65354 7.5286 5.52851C7.65362 5.40349 7.82319 5.33325 8 5.33325ZM8 7.99992C8.53043 7.99992 9.03914 7.7892 9.41421 7.41413C9.78929 7.03906 10 6.53035 10 5.99992C10 5.46949 9.78929 4.96078 9.41421 4.58571C9.03914 4.21063 8.53043 3.99992 8 3.99992C7.46957 3.99992 6.96086 4.21063 6.58579 4.58571C6.21071 4.96078 6 5.46949 6 5.99992C6 6.53035 6.21071 7.03906 6.58579 7.41413C6.96086 7.7892 7.46957 7.99992 8 7.99992ZM8 9.99992C7.64638 9.99992 7.30724 10.1404 7.05719 10.3904C6.80714 10.6405 6.66667 10.9796 6.66667 11.3333H5.33333C5.33333 10.626 5.61428 9.94773 6.11438 9.44763C6.61448 8.94754 7.29276 8.66658 8 8.66658C8.70724 8.66658 9.38552 8.94754 9.88562 9.44763C10.3857 9.94773 10.6667 10.626 10.6667 11.3333H9.33333C9.33333 10.9796 9.19286 10.6405 8.94281 10.3904C8.69276 10.1404 8.35362 9.99992 8 9.99992ZM2 7.33325C1.82319 7.33325 1.65362 7.40349 1.5286 7.52851C1.40357 7.65354 1.33333 7.82311 1.33333 7.99992C1.33333 8.17673 1.40357 8.3463 1.5286 8.47132C1.65362 8.59635 1.82319 8.66658 2 8.66658C2.17681 8.66658 2.34638 8.59635 2.4714 8.47132C2.59643 8.3463 2.66667 8.17673 2.66667 7.99992C2.66667 7.82311 2.59643 7.65354 2.4714 7.52851C2.34638 7.40349 2.17681 7.33325 2 7.33325ZM0 7.99992C0 7.46949 0.210714 6.96078 0.585786 6.5857C0.960859 6.21063 1.46957 5.99992 2 5.99992C2.53043 5.99992 3.03914 6.21063 3.41421 6.5857C3.78929 6.96078 4 7.46949 4 7.99992C4 8.53035 3.78929 9.03906 3.41421 9.41413C3.03914 9.7892 2.53043 9.99992 2 9.99992C1.46957 9.99992 0.960859 9.7892 0.585786 9.41413C0.210714 9.03906 0 8.53035 0 7.99992ZM13.3333 7.99992C13.3333 7.82311 13.4036 7.65354 13.5286 7.52851C13.6536 7.40349 13.8232 7.33325 14 7.33325C14.1768 7.33325 14.3464 7.40349 14.4714 7.52851C14.5964 7.65354 14.6667 7.82311 14.6667 7.99992C14.6667 8.17673 14.5964 8.3463 14.4714 8.47132C14.3464 8.59635 14.1768 8.66658 14 8.66658C13.8232 8.66658 13.6536 8.59635 13.5286 8.47132C13.4036 8.3463 13.3333 8.17673 13.3333 7.99992ZM14 5.99992C13.4696 5.99992 12.9609 6.21063 12.5858 6.5857C12.2107 6.96078 12 7.46949 12 7.99992C12 8.53035 12.2107 9.03906 12.5858 9.41413C12.9609 9.7892 13.4696 9.99992 14 9.99992C14.5304 9.99992 15.0391 9.7892 15.4142 9.41413C15.7893 9.03906 16 8.53035 16 7.99992C16 7.46949 15.7893 6.96078 15.4142 6.5857C15.0391 6.21063 14.5304 5.99992 14 5.99992Z" fill="#525050"/>
</svg>
