<svg width="14" height="14" viewBox="0 0 14 14" fill="none" xmlns="http://www.w3.org/2000/svg">
<path d="M11.0013 4L10.2943 4.707L12.0873 6.5H4.95078C4.85214 6.01998 4.61487 5.57944 4.26835 5.23293C3.92184 4.88641 3.48129 4.64914 3.00128 4.5505V0H2.00128V4.5505C1.4364 4.6655 0.928624 4.97218 0.56392 5.41861C0.199217 5.86504 0 6.42379 0 7.00025C0 7.57671 0.199217 8.13546 0.56392 8.58189C0.928624 9.02832 1.4364 9.335 2.00128 9.45V14H3.00128V9.4495C3.48129 9.35086 3.92184 9.11359 4.26835 8.76707C4.61487 8.42056 4.85214 7.98002 4.95078 7.5H12.0873L10.2943 9.293L11.0013 10L14.0013 7L11.0013 4ZM2.50128 8.5C2.2046 8.5 1.9146 8.41203 1.66792 8.2472C1.42125 8.08238 1.22899 7.84811 1.11546 7.57403C1.00193 7.29994 0.972221 6.99834 1.0301 6.70736C1.08798 6.41639 1.23084 6.14912 1.44062 5.93934C1.6504 5.72956 1.91767 5.5867 2.20864 5.52882C2.49961 5.47094 2.80121 5.50065 3.0753 5.61418C3.34939 5.72771 3.58366 5.91997 3.74848 6.16664C3.9133 6.41332 4.00128 6.70333 4.00128 7C4.00088 7.3977 3.84272 7.779 3.5615 8.06022C3.28028 8.34144 2.89898 8.4996 2.50128 8.5Z" fill="#525050"/>
</svg>
