<svg width="16" height="16" viewBox="0 0 16 16" fill="none" xmlns="http://www.w3.org/2000/svg">
<g opacity="0.8">
<path d="M11.5 15H10.5V14C10.4996 13.6023 10.3414 13.221 10.0602 12.9398C9.779 12.6586 9.3977 12.5004 9 12.5H7C6.6023 12.5004 6.221 12.6586 5.93978 12.9398C5.65856 13.221 5.5004 13.6023 5.5 14V15H4.5V14C4.50079 13.3372 4.76444 12.7018 5.23311 12.2331C5.70178 11.7644 6.3372 11.5008 7 11.5H9C9.6628 11.5008 10.2982 11.7644 10.7669 12.2331C11.2356 12.7018 11.4992 13.3372 11.5 14V15ZM8 6.5C8.29667 6.5 8.58668 6.58797 8.83335 6.7528C9.08003 6.91762 9.27229 7.15189 9.38582 7.42597C9.49935 7.70006 9.52906 8.00166 9.47118 8.29264C9.4133 8.58361 9.27044 8.85088 9.06066 9.06066C8.85088 9.27044 8.58361 9.4133 8.29264 9.47118C8.00166 9.52906 7.70006 9.49935 7.42597 9.38582C7.15189 9.27229 6.91762 9.08003 6.7528 8.83335C6.58797 8.58668 6.5 8.29667 6.5 8C6.5 7.60218 6.65804 7.22064 6.93934 6.93934C7.22064 6.65804 7.60218 6.5 8 6.5ZM8 5.5C7.50555 5.5 7.0222 5.64662 6.61107 5.92133C6.19995 6.19603 5.87952 6.58648 5.6903 7.04329C5.50108 7.50011 5.45157 8.00277 5.54804 8.48773C5.6445 8.97268 5.8826 9.41814 6.23223 9.76777C6.58186 10.1174 7.02732 10.3555 7.51227 10.452C7.99723 10.5484 8.49989 10.4989 8.95671 10.3097C9.41352 10.1205 9.80397 9.80005 10.0787 9.38893C10.3534 8.9778 10.5 8.49445 10.5 8C10.5 7.33696 10.2366 6.70107 9.76777 6.23223C9.29893 5.76339 8.66304 5.5 8 5.5Z" fill="#525050"/>
<path d="M15 15.0001H14V7.23208L8 2.15508L2 7.23208V15.0001H1V7.00008C1.00002 6.92745 1.01587 6.85569 1.04644 6.78981C1.07701 6.72393 1.12156 6.66549 1.177 6.61858L7.677 1.11858C7.76728 1.04217 7.88173 1.00024 8 1.00024C8.11827 1.00024 8.23272 1.04217 8.323 1.11858L14.823 6.61858C14.8784 6.66549 14.923 6.72393 14.9536 6.78981C14.9841 6.85569 15 6.92745 15 7.00008V15.0001Z" fill="#525050"/>
</g>
</svg>
