<svg width="14" height="12" viewBox="0 0 14 12" fill="none" xmlns="http://www.w3.org/2000/svg">
<path d="M6.67114 1.33333C6.40592 1.33333 6.15157 1.43869 5.96403 1.62623C5.7765 1.81376 5.67114 2.06812 5.67114 2.33333C5.67114 2.59855 5.7765 2.8529 5.96403 3.04044C6.15157 3.22798 6.40592 3.33333 6.67114 3.33333C6.93636 3.33333 7.19071 3.22798 7.37825 3.04044C7.56578 2.8529 7.67114 2.59855 7.67114 2.33333C7.67114 2.06812 7.56578 1.81376 7.37825 1.62623C7.19071 1.43869 6.93636 1.33333 6.67114 1.33333ZM4.33781 2.33333C4.33781 2.02692 4.39816 1.7235 4.51542 1.44041C4.63268 1.15731 4.80456 0.900087 5.02123 0.683417C5.2379 0.466747 5.49512 0.294875 5.77821 0.177614C6.06131 0.0603534 6.36472 0 6.67114 0C6.97756 0 7.28098 0.0603534 7.56407 0.177614C7.84716 0.294875 8.10439 0.466747 8.32106 0.683417C8.53773 0.900087 8.7096 1.15731 8.82686 1.44041C8.94412 1.7235 9.00447 2.02692 9.00447 2.33333C9.00447 2.95217 8.75864 3.54566 8.32106 3.98325C7.88347 4.42083 7.28998 4.66667 6.67114 4.66667C6.0523 4.66667 5.45881 4.42083 5.02123 3.98325C4.58364 3.54566 4.33781 2.95217 4.33781 2.33333ZM2.00447 3.33333C1.82766 3.33333 1.65809 3.40357 1.53307 3.5286C1.40805 3.65362 1.33781 3.82319 1.33781 4C1.33781 4.17681 1.40805 4.34638 1.53307 4.4714C1.65809 4.59643 1.82766 4.66667 2.00447 4.66667C2.18129 4.66667 2.35085 4.59643 2.47588 4.4714C2.6009 4.34638 2.67114 4.17681 2.67114 4C2.67114 3.82319 2.6009 3.65362 2.47588 3.5286C2.35085 3.40357 2.18129 3.33333 2.00447 3.33333ZM0.00447418 4C0.00447418 3.46957 0.215188 2.96086 0.590261 2.58579C0.965333 2.21071 1.47404 2 2.00447 2C2.53491 2 3.04362 2.21071 3.41869 2.58579C3.79376 2.96086 4.00447 3.46957 4.00447 4C4.00447 4.53043 3.79376 5.03914 3.41869 5.41421C3.04362 5.78929 2.53491 6 2.00447 6C1.47404 6 0.965333 5.78929 0.590261 5.41421C0.215188 5.03914 0.00447418 4.53043 0.00447418 4ZM10.6711 4C10.6711 3.82319 10.7414 3.65362 10.8664 3.5286C10.9914 3.40357 11.161 3.33333 11.3378 3.33333C11.5146 3.33333 11.6842 3.40357 11.8092 3.5286C11.9342 3.65362 12.0045 3.82319 12.0045 4C12.0045 4.17681 11.9342 4.34638 11.8092 4.4714C11.6842 4.59643 11.5146 4.66667 11.3378 4.66667C11.161 4.66667 10.9914 4.59643 10.8664 4.4714C10.7414 4.34638 10.6711 4.17681 10.6711 4ZM11.3378 2C10.8074 2 10.2987 2.21071 9.92359 2.58579C9.54852 2.96086 9.33781 3.46957 9.33781 4C9.33781 4.53043 9.54852 5.03914 9.92359 5.41421C10.2987 5.78929 10.8074 6 11.3378 6C11.8682 6 12.3769 5.78929 12.752 5.41421C13.1271 5.03914 13.3378 4.53043 13.3378 4C13.3378 3.46957 13.1271 2.96086 12.752 2.58579C12.3769 2.21071 11.8682 2 11.3378 2ZM4.00447 7.66667C4.00447 6.74667 4.75114 6 5.67114 6H7.67114C8.59114 6 9.33781 6.74667 9.33781 7.66667V9.33333C9.33781 10.0406 9.05686 10.7189 8.55676 11.219C8.05666 11.719 7.37839 12 6.67114 12C5.9639 12 5.28562 11.719 4.78552 11.219C4.28543 10.7189 4.00447 10.0406 4.00447 9.33333V7.66667ZM5.67114 7.33333C5.58274 7.33333 5.49795 7.36845 5.43544 7.43096C5.37293 7.49348 5.33781 7.57826 5.33781 7.66667V9.33333C5.33781 9.68696 5.47828 10.0261 5.72833 10.2761C5.97838 10.5262 6.31752 10.6667 6.67114 10.6667C7.02476 10.6667 7.3639 10.5262 7.61395 10.2761C7.864 10.0261 8.00447 9.68696 8.00447 9.33333V7.66667C8.00447 7.57826 7.96936 7.49348 7.90684 7.43096C7.84433 7.36845 7.75955 7.33333 7.67114 7.33333H5.67114ZM2.67114 7.66667C2.67114 7.28133 2.74314 6.91333 2.87647 6.576L1.23514 7.016C0.808423 7.13039 0.444577 7.40951 0.223562 7.79204C0.0025482 8.17456 -0.0575503 8.62919 0.0564742 9.056L0.315141 10.0227C0.405804 10.361 0.562223 10.6781 0.775465 10.956C0.988707 11.2338 1.2546 11.4669 1.55794 11.642C1.86129 11.8171 2.19616 11.9307 2.54342 11.9763C2.89067 12.022 3.24352 11.9987 3.58181 11.908L3.60447 11.9013C3.2969 11.5349 3.05755 11.1163 2.89781 10.6653C2.60317 10.6668 2.31633 10.5707 2.0821 10.392C1.84787 10.2132 1.67945 9.96192 1.60314 9.67733L1.34447 8.71067C1.32168 8.62527 1.33373 8.53431 1.37799 8.4578C1.42225 8.38129 1.49508 8.32549 1.58047 8.30267L2.67114 8.00933V7.66667ZM9.75914 11.9067L9.73781 11.9027C10.0418 11.5387 10.2831 11.1213 10.4445 10.6653C10.7389 10.6665 11.0254 10.5703 11.2594 10.3916C11.4933 10.2128 11.6616 9.9617 11.7378 9.67733L11.9951 8.71067C12.0179 8.62527 12.0059 8.53431 11.9616 8.4578C11.9174 8.38129 11.8445 8.32549 11.7591 8.30267L10.6711 8.01067V7.66667C10.6711 7.28133 10.5991 6.91467 10.4671 6.576L12.1045 7.016C12.5312 7.13039 12.895 7.40951 13.1161 7.79204C13.3371 8.17456 13.3972 8.62919 13.2831 9.056L13.0245 10.0227C12.9338 10.361 12.7774 10.6781 12.5642 10.956C12.3509 11.2338 12.085 11.4669 11.7817 11.642C11.4783 11.8171 11.1435 11.9307 10.7962 11.9763C10.4489 12.022 10.0961 11.9987 9.75781 11.908" fill="#525050"/>
</svg>
